
	<svg xmlns="http://www.w3.org/2000/svg" xmlns:xlink="http://www.w3.org/1999/xlink" version="1.1" width="128" height="128" viewBox="0 0 100 100">


		<defs>
			<g id="background">
<path fill="url(#background-gradient)" stroke="none" d=" M 85.35 85.35 Q 100 70.6 100 50 100 29.3 85.35 14.65 70.7 0 50 0 29.3 0 14.65 14.65 0 29.3 0 50 0 70.6 14.65 85.35 29.3 100 50 100 70.7 100 85.35 85.35 Z"/>
</g><g id="middle-1">
<path fill="#000000" fill-opacity="0.10196078431372549" stroke="none" d=" M 0 50 Q 0 70.7 14.75 85.4 29.3 100 50 100 61 100 71.15 95.25 L 0.1 47.95 0 50 M 98 63.8 L 99.2 59.1 22.6 8.15 18.6 11.05 98 63.8 Z"/>
</g><mask id="mask">
<path fill="#FFFFFF" stroke="none" d=" M 85.35 85.35 Q 100 70.6 100 50 100 29.3 85.35 14.65 70.7 0 50 0 29.3 0 14.65 14.65 0 29.3 0 50 0 70.6 14.65 85.35 29.3 100 50 100 70.7 100 85.35 85.35 Z"/>
</mask>
			
	<linearGradient id="background-gradient" x1="0" y1="0" y2="1" x2="0" >
		<stop stop-color="#5075C1" offset="0%"/>
		<stop stop-color="#5075C1" offset="100%"/>
	</linearGradient>

			
			
			<g transform="scale(3.3333333333333335) translate(1 0)" id="picture"><path d="M14 7c0-.6-.4-1-1-1H8V1c0-.6-.4-1-1-1H1C.4 0 0 .4 0 1v18c0 .6.4 1 1 1h6c.6 0 1-.4 1-1v-5h5c.6 0 1-.4 1-1V7zM2 12V8h4v4H2zM2 2h4v4H2V2zm4 16H2v-4h4v4zm6-6H8V8h4v4zm15-2h-6c-.6 0-1 .4-1 1v5h-5c-.6 0-1 .4-1 1v6c0 .6.4 1 1 1h5v5c0 .6.4 1 1 1h6c.6 0 1-.4 1-1V11c0-.6-.4-1-1-1zm-5 8h4v4h-4v-4zm0-6h4v4h-4v-4zm-6 6h4v4h-4v-4zm10 10h-4v-4h4v4z"/></g>
			
	<linearGradient id="picture-gradient" x1="0" y1="0" y2="1" x2="0" >
		<stop stop-color="#ffffff" offset="0%"/>
		<stop stop-color="#e5eff9" offset="100%"/>
	</linearGradient>

		</defs>

		

			<use xlink:href="#background" fill="url(#background-gradient)" />

		<use xlink:href="#middle-1" />

			<g mask="url(#mask)">
				<g transform="
				        translate(
                                50 50
)
                            translate(0 0)  scale(0.5)  
                            translate(
                                -50 -50
)">
						<use xlink:href="#picture" fill="url(#picture-gradient)"  />
				</g>
			</g>

		



	</svg>
