<?xml version="1.0" encoding="UTF-8"?> <svg xmlns="http://www.w3.org/2000/svg" xmlns:xlink="http://www.w3.org/1999/xlink" width="256.802" height="40.118" viewBox="0 0 256.802 40.118"><defs><style>.a{fill:url(#a);}.b{fill:#000a2f;}</style><linearGradient id="a" x1="1.123" y1="1.099" x2="-0.131" y2="-0.12" gradientUnits="objectBoundingBox"><stop offset="0" stop-color="#0038ff"></stop><stop offset="1" stop-color="#00e5ff"></stop></linearGradient></defs><g transform="translate(-551.068 -652.161)"><path class="a" d="M554.377,655.569a3.308,3.308,0,0,0-3.309,3.309v12.678a3.309,3.309,0,0,0,6.618,0V658.878A3.309,3.309,0,0,0,554.377,655.569Zm10.34,0a3.308,3.308,0,0,0-3.309,3.309v33.5a3.309,3.309,0,1,0,6.617,0v-33.5A3.308,3.308,0,0,0,564.716,655.569Zm10.753,0a3.308,3.308,0,0,0-3.309,3.309v12.678a3.309,3.309,0,1,0,6.617,0V658.878A3.309,3.309,0,0,0,575.47,655.569Zm10.753,0a3.309,3.309,0,0,0-3.309,3.309v33.5a3.309,3.309,0,0,0,6.617,0v-33.5A3.308,3.308,0,0,0,586.223,655.569Zm10.753,0a3.308,3.308,0,0,0-3.309,3.309v12.678a3.309,3.309,0,1,0,6.617,0V658.878A3.308,3.308,0,0,0,596.976,655.569Z" transform="translate(0 -3.408)"></path><path class="b" d="M7.812.168A2.03,2.03,0,0,0,9.884-2.016V-15.2a.148.148,0,0,1,.168-.168h3.22a1.856,1.856,0,0,0,2.072-1.82,1.86,1.86,0,0,0-2.072-1.848H2.38A1.86,1.86,0,0,0,.308-17.192a1.856,1.856,0,0,0,2.072,1.82H5.6a.148.148,0,0,1,.168.168V-2.016A2.025,2.025,0,0,0,7.812.168Zm22.6,0a1.881,1.881,0,0,0,1.96-1.96,2.4,2.4,0,0,0-.28-1.148L29.316-7.98a5.554,5.554,0,0,0,3.136-5.152c0-3.472-2.576-5.908-6.5-5.908H19.908a1.683,1.683,0,0,0-1.792,1.82v15.2A2.03,2.03,0,0,0,20.188.168a2.009,2.009,0,0,0,2.044-2.184V-7.084a.148.148,0,0,1,.168-.168h2.8L28.392-1.12A2.179,2.179,0,0,0,30.408.168ZM25.76-10.752H22.4a.148.148,0,0,1-.168-.168v-4.4a.148.148,0,0,1,.168-.168h3.36a2.32,2.32,0,0,1,2.576,2.38A2.314,2.314,0,0,1,25.76-10.752ZM43.456.308c4.284,0,7.28-2.576,7.28-7.336v-10a2.03,2.03,0,0,0-2.072-2.184,2.025,2.025,0,0,0-2.044,2.184V-6.888c0,2.268-1.26,3.556-3.164,3.556-1.82,0-3.192-1.26-3.192-3.556V-17.024a2.025,2.025,0,0,0-2.044-2.184,2.03,2.03,0,0,0-2.072,2.184v10C36.148-2.268,39,.308,43.456.308Zm17.808,0c4.956,0,7.476-2.548,7.476-5.992s-2.044-5.208-5.992-5.768l-1.008-.14c-2.212-.308-2.968-1.036-2.968-2.1,0-1.2.9-2.044,2.576-2.044a7.736,7.736,0,0,1,3.276.784,2.745,2.745,0,0,0,1.2.308,1.752,1.752,0,0,0,1.792-1.792,1.87,1.87,0,0,0-.98-1.652,11.029,11.029,0,0,0-5.32-1.26c-4.116,0-6.748,2.324-6.748,5.824,0,3.36,2.128,5.18,6.02,5.712l1.008.14c2.268.308,2.94,1.008,2.94,2.128,0,1.316-1.092,2.24-3.108,2.24a7.872,7.872,0,0,1-4.088-1.232,2.418,2.418,0,0,0-1.2-.336,1.805,1.805,0,0,0-1.848,1.82,2.061,2.061,0,0,0,.98,1.736A11.359,11.359,0,0,0,61.264.308ZM78.232.168A2.03,2.03,0,0,0,80.3-2.016V-15.2a.148.148,0,0,1,.168-.168h3.22a1.856,1.856,0,0,0,2.072-1.82,1.86,1.86,0,0,0-2.072-1.848H72.8a1.86,1.86,0,0,0-2.072,1.848,1.856,1.856,0,0,0,2.072,1.82h3.22a.148.148,0,0,1,.168.168V-2.016A2.025,2.025,0,0,0,78.232.168ZM88.676-4.62A4.66,4.66,0,0,0,93.716.308c1.96,0,3.5-.84,5.124-2.576l.756.952A2.706,2.706,0,0,0,102.116,0h.168a1.066,1.066,0,0,0,1.148-1.12,1.052,1.052,0,0,0-1.092-1.064,1.267,1.267,0,0,1-1.036-.56L100.324-4l1.708-2.184a1.085,1.085,0,0,0,.28-.728.951.951,0,0,0-.952-.98,1.119,1.119,0,0,0-.84.42l-1.484,1.82-3.612-4.676c2.576-2.044,3.388-3.3,3.388-4.956a4.107,4.107,0,0,0-4.368-4.06,4.1,4.1,0,0,0-4.368,4.088c0,1.316.56,2.24,2.38,4.62C89.852-8.54,88.676-6.776,88.676-4.62Zm5.488-7.364c-1.512-1.988-1.82-2.52-1.82-3.3a1.977,1.977,0,0,1,2.1-2.072,2.04,2.04,0,0,1,2.184,2.044C96.628-14.336,96.264-13.664,94.164-11.984Zm-3.276,7.2c0-1.456.9-2.66,2.828-4.2l3.864,5.04c-1.68,1.848-2.6,2.184-3.724,2.184A2.765,2.765,0,0,1,90.888-4.788ZM112.9.168a2.03,2.03,0,0,0,2.072-2.184V-15.2a.148.148,0,0,1,.168-.168h3.22a1.856,1.856,0,0,0,2.072-1.82,1.86,1.86,0,0,0-2.072-1.848H107.464a1.86,1.86,0,0,0-2.072,1.848,1.856,1.856,0,0,0,2.072,1.82h3.22a.148.148,0,0,1,.168.168V-2.016A2.025,2.025,0,0,0,112.9.168Zm22.6,0a1.881,1.881,0,0,0,1.96-1.96,2.4,2.4,0,0,0-.28-1.148L134.4-7.98a5.554,5.554,0,0,0,3.136-5.152c0-3.472-2.576-5.908-6.5-5.908h-6.048a1.683,1.683,0,0,0-1.792,1.82v15.2A2.03,2.03,0,0,0,125.272.168a2.009,2.009,0,0,0,2.044-2.184V-7.084a.148.148,0,0,1,.168-.168h2.8l3.192,6.132A2.179,2.179,0,0,0,135.492.168Zm-4.648-10.92h-3.36a.148.148,0,0,1-.168-.168v-4.4a.148.148,0,0,1,.168-.168h3.36a2.32,2.32,0,0,1,2.576,2.38A2.314,2.314,0,0,1,130.844-10.752Zm9.576,8.988A1.929,1.929,0,0,0,142.408.168a1.991,1.991,0,0,0,1.932-1.456l.756-2.324h6.8l.784,2.324A1.991,1.991,0,0,0,154.616.168,1.929,1.929,0,0,0,156.6-1.764a2.3,2.3,0,0,0-.14-.784L151.4-16.8c-.532-1.512-1.4-2.408-2.856-2.408s-2.3.9-2.828,2.408L140.56-2.548A2.3,2.3,0,0,0,140.42-1.764Zm5.852-5.348,2.212-6.664h.084l2.184,6.664Zm12.936,2.744c1.008,3.108,3.472,4.676,6.8,4.676a6.54,6.54,0,0,0,5.908-3.024,2.428,2.428,0,0,0,.364-1.232A1.818,1.818,0,0,0,170.408-5.8a2.106,2.106,0,0,0-1.82,1.064,2.862,2.862,0,0,1-2.576,1.4,2.78,2.78,0,0,1-2.856-2.1c-.224-.7-.308-1.372-.308-4.088s.084-3.388.308-4.088a2.78,2.78,0,0,1,2.856-2.1,2.862,2.862,0,0,1,2.576,1.4,2.106,2.106,0,0,0,1.82,1.064,1.818,1.818,0,0,0,1.876-1.848,2.428,2.428,0,0,0-.364-1.232,6.54,6.54,0,0,0-5.908-3.024c-3.332,0-5.8,1.568-6.8,4.676a15.234,15.234,0,0,0-.532,5.152A15.234,15.234,0,0,0,159.208-4.368ZM175.924-1.82A1.683,1.683,0,0,0,177.716,0h9.24a1.766,1.766,0,0,0,1.9-1.792,1.761,1.761,0,0,0-1.9-1.764h-6.748a.148.148,0,0,1-.168-.168V-7.672a.148.148,0,0,1,.168-.168h5.4A1.722,1.722,0,0,0,187.488-9.6a1.722,1.722,0,0,0-1.876-1.764h-5.4a.148.148,0,0,1-.168-.168v-3.78a.148.148,0,0,1,.168-.168h6.748a1.761,1.761,0,0,0,1.9-1.764,1.766,1.766,0,0,0-1.9-1.792h-9.24a1.683,1.683,0,0,0-1.792,1.82Z" transform="translate(619.01 679.478)"></path></g></svg> 